<?xml version="1.0" encoding="iso-8859-1"?>
<!-- Generator: Adobe Illustrator 19.0.0, SVG Export Plug-In . SVG Version: 6.00 Build 0)  -->
<svg version="1.1" id="Layer_1" xmlns="http://www.w3.org/2000/svg" xmlns:xlink="http://www.w3.org/1999/xlink" x="0px" y="0px"
	 viewBox="0 0 511.999 511.999" style="enable-background:new 0 0 511.999 511.999;" xml:space="preserve">
<path style="fill:#FFCE6E;" d="M255.999,0C114.615,0,0,114.615,0,255.999s114.615,255.999,255.999,255.999
	s255.999-114.615,255.999-255.999S397.385,0,255.999,0z"/>
<path style="fill:#FF462E;" d="M312.47,455.276c111.687-37.483,118.571-135.4,78.028-215.723
	c-21.42-37.483-6.884-60.433-6.884-60.433s-42.838,7.65-60.433,42.074c-24.479-52.783,36.719-74.202-4.59-164.47
	c0,0-18.36,32.894-70.378,60.433s-48.193,88.737-48.193,88.737s-9.945-41.309-57.374-48.193c0,0,9.179,41.309-13.77,76.497
	S47.789,427.737,251.272,455.276c0,0-94.092-65.787-51.253-178.24c0,0,11.475,26.775,30.599,34.424c0,0,9.179-46.664,56.608-64.258
	c0,0-4.59,53.548,19.125,73.437c0,0,24.479-14.534,27.539-36.719C333.89,283.921,371.373,384.133,312.47,455.276z"/>
<g>
</g>
<g>
</g>
<g>
</g>
<g>
</g>
<g>
</g>
<g>
</g>
<g>
</g>
<g>
</g>
<g>
</g>
<g>
</g>
<g>
</g>
<g>
</g>
<g>
</g>
<g>
</g>
<g>
</g>
</svg>
