<?xml version="1.0" standalone="no"?>
<!DOCTYPE svg PUBLIC "-//W3C//DTD SVG 20010904//EN"
 "http://www.w3.org/TR/2001/REC-SVG-20010904/DTD/svg10.dtd">
<svg version="1.0" xmlns="http://www.w3.org/2000/svg"
 width="964.000000pt" height="964.000000pt" viewBox="0 0 964.000000 964.000000"
 preserveAspectRatio="xMidYMid meet">
<metadata>
Created by potrace 1.11, written by Peter Selinger 2001-2013
</metadata>
<g transform="translate(0.000000,964.000000) scale(0.100000,-0.100000)"
fill="#000000" stroke="none">
<path d="M0 4820 l0 -4820 4820 0 4820 0 0 4820 0 4820 -4820 0 -4820 0 0
-4820z m4354 4034 c12 -94 16 -89 -81 -103 -153 -23 -145 -25 -159 44 -7 33
-9 63 -6 67 5 5 160 30 228 37 6 0 14 -20 18 -45z m-301 -42 c6 -32 13 -42 28
-42 23 0 25 -18 3 -34 -11 -8 -13 -20 -9 -39 8 -31 25 -36 32 -8 5 20 14 23
173 46 117 18 110 18 110 1 0 -14 -16 -18 -113 -32 -26 -3 -50 -11 -53 -16 -4
-6 4 -8 22 -4 16 3 55 8 87 12 l57 6 0 -65 c0 -71 -8 -84 -55 -89 -37 -4 -50
29 -13 34 19 2 23 10 26 43 l2 40 -17 -23 c-69 -91 -107 -122 -125 -104 -7 7
6 26 38 57 27 26 44 50 37 52 -6 2 -32 -19 -58 -46 -48 -51 -76 -68 -96 -55
-7 4 8 23 38 50 30 27 42 43 32 44 -9 0 -22 -7 -30 -16 -8 -10 -22 -14 -40
-10 -20 4 -37 -2 -65 -25 -44 -35 -72 -25 -37 13 19 21 21 28 12 71 -9 40 -14
47 -35 47 -29 0 -32 26 -4 35 20 6 20 22 4 74 -5 15 15 33 31 28 5 -2 13 -22
18 -45z m-145 -30 c2 -7 -10 -15 -27 -18 -18 -4 -31 -13 -31 -21 0 -11 7 -13
30 -8 23 5 30 3 30 -9 0 -9 -11 -18 -25 -22 -14 -3 -25 -9 -25 -13 1 -19 21
-32 45 -29 30 3 47 -18 22 -28 -14 -5 -14 -10 -1 -46 8 -22 14 -44 14 -49 0
-5 -21 -15 -47 -23 l-48 -15 63 0 c48 -1 62 -4 62 -16 0 -11 -13 -15 -55 -16
-30 -1 -61 -2 -67 -3 -7 -1 -12 7 -10 17 3 20 -6 21 -45 6 -20 -7 -24 -12 -14
-18 8 -5 11 -13 7 -19 -12 -19 -97 -64 -112 -58 -24 9 -16 22 26 41 58 26 73
47 25 34 -43 -12 -48 -8 -65 44 -13 41 -47 55 -36 15 3 -13 9 -52 13 -87 6
-58 5 -63 -13 -59 -15 2 -21 15 -25 53 -4 28 -21 93 -38 146 -17 53 -31 100
-31 105 0 6 30 19 66 29 49 15 68 26 75 43 9 23 44 31 51 10 3 -8 26 -5 84 9
85 23 96 23 102 5z m-461 -118 c3 -8 -229 -105 -249 -104 -5 0 -8 6 -8 14 0 7
26 23 58 36 182 72 192 75 199 54z m-7 -70 c6 -14 10 -31 10 -39 0 -10 -162
-85 -184 -85 -6 0 -29 71 -24 74 6 5 173 74 181 75 4 1 12 -11 17 -25z m-300
-44 c11 -6 17 -17 14 -25 -7 -18 0 -19 26 -5 15 8 21 6 31 -11 6 -12 8 -34 5
-50 -4 -22 0 -32 17 -44 29 -20 40 -19 33 3 -7 21 -1 25 125 73 44 17 84 29
90 27 6 -2 24 -39 40 -83 31 -83 27 -100 -16 -89 -24 6 -136 -41 -148 -62 -16
-27 -33 -13 -56 46 -23 57 -41 77 -41 45 0 -9 -6 -12 -16 -8 -16 6 -13 -6 27
-90 11 -24 11 -30 -2 -38 -23 -14 -26 -12 -50 46 -20 50 -39 71 -39 45 0 -15
-30 -12 -36 3 -2 7 2 30 11 50 8 20 15 48 15 63 0 28 2 27 -62 7 -30 -9 -21
26 10 38 l27 11 -25 11 c-14 6 -26 12 -28 13 -1 0 0 9 4 18 7 19 18 20 44 6z
m2145 -130 c276 -39 451 -80 690 -161 484 -165 882 -402 1286 -766 85 -77 161
-149 169 -160 8 -11 54 -65 103 -118 296 -329 545 -761 699 -1215 129 -381
188 -744 188 -1161 0 -399 -60 -780 -179 -1132 -36 -105 -38 -119 -23 -123 59
-19 98 -43 133 -83 28 -31 43 -41 50 -34 7 7 14 116 19 289 10 311 24 397 82
506 55 104 127 148 242 148 46 0 63 5 96 29 82 59 178 61 282 4 82 -45 89 -57
115 -211 29 -170 59 -466 73 -722 6 -107 17 -249 25 -315 20 -161 19 -271 -5
-482 -43 -376 -129 -725 -255 -1028 -54 -131 -191 -398 -248 -485 -106 -160
-300 -321 -438 -365 -147 -46 -317 -69 -411 -55 -40 5 -125 17 -188 26 -258
35 -524 106 -669 179 -89 44 -219 135 -298 208 -102 93 -223 274 -278 412 -82
206 -108 617 -56 875 21 104 42 164 95 267 21 42 37 90 41 125 8 70 -5 76 -36
16 -31 -60 -123 -202 -183 -280 l-51 -68 -118 0 c-133 0 -129 -5 -57 80 73 84
191 266 253 387 64 125 89 185 201 493 76 207 83 233 90 325 15 214 62 412 92
382 2 -2 0 -26 -5 -53 -32 -161 -39 -416 -29 -1082 l3 -193 25 -5 c67 -14 119
-41 161 -83 38 -37 49 -57 59 -103 12 -51 10 -69 -14 -190 -31 -157 -33 -220
-8 -309 44 -157 157 -276 322 -338 96 -36 242 -34 360 3 99 32 191 80 270 141
69 53 206 196 249 261 30 45 32 55 29 111 -3 53 -14 81 -70 191 -37 72 -83
170 -103 218 -86 210 -119 231 -282 179 -175 -55 -520 -116 -654 -116 -86 -1
-129 14 -182 60 -82 72 -103 244 -42 333 17 24 52 57 78 75 52 35 82 42 457
113 63 12 222 47 352 78 l238 55 29 76 c141 370 213 775 214 1206 1 366 -47
689 -155 1040 -61 200 -192 498 -286 650 -17 28 -45 73 -61 100 -17 28 -41 63
-54 80 -21 25 -27 27 -40 16 -9 -7 -14 -18 -11 -25 6 -17 -38 -15 -59 3 -15
12 -17 11 -17 -12 0 -16 -7 -28 -18 -31 -9 -3 -32 -19 -50 -36 -19 -17 -38
-27 -44 -24 -6 4 -8 -1 -3 -15 9 -28 -20 -29 -37 -1 -18 28 -28 25 -28 -9 0
-17 -4 -33 -10 -36 -5 -3 -10 -15 -10 -26 0 -10 -7 -19 -15 -19 -8 0 -15 -4
-15 -10 0 -5 5 -10 11 -10 23 0 -4 -20 -42 -30 -22 -6 -37 -15 -34 -21 4 -5
11 -6 17 -3 6 4 9 1 6 -7 -6 -17 -38 -25 -47 -11 -4 7 -12 8 -21 2 -10 -7 -11
-10 -2 -10 6 0 12 -7 12 -15 0 -9 -6 -12 -15 -9 -8 4 -15 13 -15 21 0 12 -2
12 -16 -1 -16 -17 -34 -13 -34 7 0 7 -8 21 -17 32 -15 19 -15 19 -9 -6 3 -15
0 -33 -7 -43 -12 -17 -14 -16 -30 8 -15 22 -15 26 -2 26 8 0 15 7 15 15 0 8
-4 15 -10 15 -5 0 -10 7 -10 15 0 8 5 15 10 15 6 0 10 -4 10 -10 0 -5 7 -7 15
-4 10 4 12 11 6 22 -4 10 -6 24 -4 32 4 13 3 13 -6 0 -7 -11 -16 -12 -37 -5
-15 6 -26 15 -23 20 2 6 8 9 13 7 8 -3 5 18 -9 66 -5 16 -3 22 7 22 8 0 24 9
37 21 l22 21 25 -28 c20 -21 23 -29 12 -35 -9 -6 -9 -9 -1 -9 6 0 15 5 18 10
10 16 -5 50 -22 50 -10 0 -13 5 -8 18 16 41 15 98 -4 135 -16 31 -17 42 -8 60
19 37 55 70 67 62 6 -4 20 5 31 19 12 16 30 26 46 26 19 0 24 4 19 17 -4 10 1
23 13 35 26 23 31 23 31 -2 0 -11 5 -20 10 -20 6 0 10 9 10 20 0 11 7 23 15
26 22 9 15 54 -14 94 -80 111 -353 364 -546 505 -198 146 -559 345 -750 415
l-60 22 24 -26 c14 -14 29 -26 34 -26 11 0 114 -80 205 -158 104 -90 322 -346
368 -431 31 -58 43 -78 75 -121 35 -46 129 -235 129 -257 0 -10 -12 -49 -25
-88 -14 -38 -25 -71 -25 -72 0 -1 -16 -13 -37 -27 l-36 -25 -42 97 c-38 88
-69 153 -121 252 -63 123 -258 377 -355 464 -51 45 -194 156 -202 156 -3 0 -8
-7 -10 -15 -4 -11 -4 -10 -3 2 3 36 -314 213 -382 213 -16 0 -32 5 -34 11 -2
6 -29 11 -61 12 -31 1 -57 6 -57 10 0 5 -5 5 -10 2 -6 -4 -16 -2 -23 3 -15 12
-116 37 -236 57 -52 9 -97 17 -100 18 -3 0 -16 -2 -27 -6 -12 -4 -39 -2 -60 6
-39 13 -124 11 -124 -3 0 -4 -19 -3 -42 3 -69 17 -321 11 -408 -10 -41 -9 -86
-16 -98 -15 -13 2 -30 -2 -38 -9 -7 -6 -20 -9 -28 -6 -8 3 -30 -1 -47 -10 -32
-16 -92 -32 -134 -36 -11 -1 -24 -8 -28 -14 -4 -7 -17 -13 -28 -13 -11 0 -33
-7 -49 -15 -16 -8 -35 -12 -43 -9 -7 2 -20 -2 -27 -11 -7 -8 -17 -15 -22 -15
-6 0 -22 -9 -38 -20 -15 -11 -30 -16 -34 -13 -3 4 -15 -3 -26 -15 -12 -12 -25
-22 -30 -22 -9 0 -18 -7 -71 -55 -9 -8 -26 -15 -38 -15 -12 0 -24 -7 -27 -15
-4 -8 -13 -15 -20 -15 -8 0 -17 -7 -20 -15 -4 -8 -12 -15 -20 -15 -8 0 -19 -9
-26 -20 -7 -11 -20 -20 -29 -20 -9 0 -19 -7 -23 -15 -3 -8 -12 -15 -21 -15 -8
0 -15 -4 -15 -9 0 -10 -105 -81 -120 -81 -6 0 -21 -9 -33 -21 -32 -30 -55 -41
-62 -29 -4 6 -9 61 -12 123 -2 61 -8 124 -13 139 -8 24 -4 30 43 67 87 67 133
110 117 110 -47 0 -539 -293 -698 -417 -156 -120 -255 -215 -429 -405 -225
-248 -374 -452 -472 -647 -30 -58 -57 -110 -61 -115 -5 -6 -17 -33 -29 -61
l-20 -52 27 -5 c15 -3 33 -1 40 5 9 8 17 6 30 -6 10 -9 28 -16 41 -16 12 0 24
-7 27 -15 4 -8 12 -15 20 -15 8 0 14 -4 14 -9 0 -5 11 -12 24 -15 25 -6 62
-69 51 -87 -8 -13 23 -38 48 -39 9 0 17 -6 17 -14 0 -8 -8 -17 -17 -19 -12 -3
-8 -7 15 -12 21 -5 32 -13 32 -25 0 -10 7 -23 15 -30 12 -10 11 -15 -6 -33
-24 -26 -10 -34 31 -17 43 18 90 4 90 -25 0 -13 3 -25 8 -27 4 -1 19 -22 35
-45 15 -24 33 -43 41 -43 8 0 16 -7 20 -15 4 -11 13 -14 32 -9 26 7 27 6 21
-24 -5 -25 -3 -30 8 -25 8 3 15 9 15 15 0 5 5 6 10 3 18 -11 11 -23 -18 -30
-20 -4 -32 -15 -40 -39 -16 -45 -16 -46 17 -46 17 0 33 -4 36 -10 11 -18 27
-11 20 9 -7 24 33 37 53 17 12 -11 9 -13 -15 -8 -28 5 -28 5 -9 -17 19 -21 19
-21 -5 -22 -29 -2 -60 -5 -75 -7 -7 -1 -14 -11 -17 -22 -4 -16 -2 -18 13 -10
23 12 37 -4 21 -24 -14 -16 -4 -26 26 -26 15 0 24 -6 25 -17 3 -38 -4 -67 -19
-78 -11 -8 -12 -14 -5 -19 6 -3 16 3 22 14 14 25 26 26 33 0 3 -11 1 -18 -4
-14 -5 3 -9 -6 -9 -20 0 -14 5 -26 10 -26 6 0 10 -4 10 -10 0 -5 -7 -10 -16
-10 -10 0 -14 -6 -11 -14 3 -8 -3 -22 -14 -32 -25 -23 -25 -44 1 -37 24 6 26
-9 5 -31 -19 -19 -19 -26 0 -26 8 0 15 5 15 10 0 6 7 10 15 10 11 0 14 -7 9
-24 -3 -13 -1 -27 5 -30 17 -11 13 -29 -15 -61 -44 -51 -70 -131 -39 -119 8 4
15 1 15 -5 0 -6 -4 -11 -9 -11 -5 0 -12 -14 -16 -30 -4 -16 -11 -30 -17 -30
-6 0 -8 -13 -4 -32 3 -21 0 -40 -9 -52 -8 -11 -15 -24 -15 -30 0 -6 7 0 16 13
13 18 18 20 25 10 13 -21 11 -33 -11 -57 -19 -20 -18 -26 3 -23 10 1 9 -37 -2
-43 -4 -3 -6 -16 -4 -30 3 -13 0 -33 -6 -43 -7 -14 -7 -23 1 -31 9 -9 6 -23
-12 -58 -21 -42 -21 -48 -6 -56 24 -14 20 -31 -5 -18 -27 15 -32 8 -18 -24 10
-22 9 -29 -5 -45 -12 -13 -14 -21 -6 -26 6 -4 9 -13 6 -21 -3 -8 -3 -21 1 -30
5 -13 7 -13 14 -2 7 10 9 9 9 -4 0 -10 -5 -18 -11 -18 -7 0 -9 -11 -6 -30 6
-29 -6 -50 -18 -30 -9 15 -25 12 -25 -5 0 -8 7 -15 15 -15 19 0 19 -14 -1 -34
-9 -10 -13 -24 -9 -36 6 -19 4 -20 -22 -14 -25 6 -26 5 -15 -8 11 -13 8 -23
-18 -62 -29 -43 -50 -58 -50 -37 0 10 -30 24 -37 17 -3 -3 10 -18 29 -35 l33
-30 -32 -13 c-18 -7 -33 -18 -33 -26 0 -9 -7 -11 -20 -7 -14 4 -20 2 -20 -8 0
-8 -7 -20 -15 -27 -9 -7 -13 -21 -9 -35 3 -13 1 -26 -5 -30 -6 -3 -8 -17 -5
-29 4 -19 -1 -26 -31 -40 -20 -10 -46 -16 -58 -15 -12 1 -30 -1 -40 -6 -9 -4
-38 -2 -63 4 -25 7 -54 9 -65 6 -21 -7 -25 -30 -8 -40 16 -10 28 -50 23 -72
-7 -25 -69 -54 -83 -40 -8 8 -11 5 -11 -11 0 -12 -9 -26 -20 -32 -11 -6 -20
-17 -20 -25 0 -17 -12 -19 -26 -5 -7 7 -16 6 -27 -2 -15 -12 -12 -23 35 -128
128 -289 286 -544 472 -765 28 -33 54 -62 59 -63 4 -2 7 -8 7 -13 0 -5 -42 -9
-94 -9 l-94 0 -89 118 c-159 209 -248 352 -363 582 -194 389 -298 750 -357
1245 -21 175 -28 488 -14 575 6 36 18 130 27 209 28 258 84 504 176 771 63
181 84 232 165 395 442 886 1188 1531 2128 1840 209 69 404 113 640 145 206
27 224 28 530 25 211 -2 303 -8 420 -25z m-2356 -148 c39 -73 71 -140 71 -148
0 -8 -15 -23 -32 -34 -38 -23 -38 -23 -58 -10 -13 8 -10 14 15 34 23 18 27 27
18 37 -6 8 -38 66 -73 128 -58 107 -61 116 -44 128 10 7 21 10 25 6 3 -5 39
-68 78 -141z m108 80 c32 -27 64 -56 71 -64 14 -17 6 -48 -12 -48 -18 1 -158
139 -151 150 12 19 34 10 92 -38z m-231 -131 c4 -25 8 -66 8 -91 1 -39 -2 -45
-19 -45 -16 0 -20 7 -22 40 -2 22 -8 67 -14 99 -8 47 -8 61 3 67 19 12 36 -15
44 -70z m-276 -96 c31 -16 60 -61 60 -94 0 -28 -44 -76 -82 -91 -18 -8 -42
-24 -53 -36 -48 -55 -120 -30 -118 40 1 41 23 80 53 96 30 16 37 -13 11 -46
-27 -34 -28 -74 -2 -74 21 0 31 19 31 56 0 31 25 41 48 20 16 -14 20 -14 40 0
30 21 28 58 -4 83 -33 26 -74 27 -123 1 -60 -30 -91 -73 -91 -127 0 -39 5 -50
39 -84 30 -30 46 -39 74 -39 51 0 101 24 135 66 20 24 36 35 46 31 23 -9 20
-22 -16 -63 -42 -48 -100 -74 -164 -74 -66 0 -111 29 -143 93 -32 64 -24 118
26 177 62 73 164 101 233 65z m2172 -272 c16 -15 21 -15 28 -3 8 12 10 12 15
0 9 -24 135 -14 135 11 0 15 47 10 60 -5 6 -8 19 -12 27 -9 9 4 22 -2 30 -13
8 -11 17 -15 21 -9 9 12 165 14 173 1 4 -5 26 -10 50 -12 24 -2 49 -10 54 -17
6 -8 28 -11 60 -9 40 3 54 -1 73 -18 12 -11 27 -18 32 -15 17 11 121 -43 127
-65 3 -11 9 -18 13 -15 12 8 100 -28 100 -41 0 -6 10 -9 24 -7 17 4 26 0 30
-14 8 -24 49 -48 69 -40 9 3 14 -1 13 -11 0 -9 8 -18 18 -20 11 -2 38 -24 60
-49 32 -36 44 -43 63 -38 16 4 23 2 22 -7 -3 -28 2 -35 41 -52 22 -10 40 -24
40 -32 0 -8 4 -14 9 -14 5 0 7 -9 4 -20 -3 -12 0 -20 7 -20 16 0 50 -38 50
-56 0 -7 11 -21 25 -32 14 -11 25 -25 25 -31 0 -7 10 -15 21 -19 22 -8 49 -68
49 -109 0 -12 6 -28 13 -35 7 -7 19 -29 27 -48 8 -19 22 -41 32 -48 12 -9 17
-21 13 -33 -4 -13 -2 -19 8 -19 10 0 13 -7 10 -20 -3 -11 -1 -20 4 -20 5 0 9
-16 9 -36 0 -19 5 -39 12 -43 9 -5 9 -16 2 -42 -7 -22 -7 -35 0 -37 5 -2 10
-10 10 -18 0 -8 4 -14 8 -14 5 0 15 -15 24 -32 18 -39 15 -45 -97 -174 -76
-88 -192 -244 -202 -272 -4 -9 -21 -34 -40 -55 -18 -20 -33 -41 -33 -46 0 -10
-131 -108 -231 -174 -91 -60 -300 -137 -519 -192 -169 -42 -458 -176 -536
-247 -59 -55 -102 -143 -114 -239 -12 -99 7 -164 59 -207 27 -21 133 -74 190
-93 29 -11 77 -34 105 -53 68 -45 115 -67 216 -106 47 -18 132 -54 190 -80 58
-26 139 -63 180 -81 41 -18 93 -43 115 -56 22 -12 73 -39 114 -60 l75 -37 170
-7 c149 -7 372 -32 384 -44 2 -2 0 -14 -4 -27 -4 -13 -7 -31 -5 -40 1 -10 -5
-33 -14 -52 -9 -19 -14 -39 -11 -45 4 -5 -3 -15 -14 -21 -19 -10 -28 -31 -12
-29 18 3 26 -2 14 -10 -8 -4 -15 -23 -17 -42 -5 -56 -16 -89 -34 -100 -14 -9
-14 -10 2 -5 19 6 21 -2 8 -23 -5 -7 -14 -10 -21 -6 -9 5 -10 2 -5 -14 4 -13
2 -21 -5 -21 -7 0 -9 -7 -6 -15 3 -9 2 -23 -3 -33 -21 -41 -34 -78 -32 -90 2
-9 -4 -12 -18 -7 -23 7 -37 -10 -23 -28 15 -18 2 -69 -19 -74 -10 -3 -16 -9
-13 -14 7 -11 -5 -49 -14 -47 -18 3 -39 -15 -35 -31 3 -11 -7 -26 -26 -42 -32
-25 -41 -49 -18 -49 8 0 7 -3 -3 -10 -8 -5 -17 -5 -20 0 -3 4 -5 -14 -6 -41 0
-27 4 -49 9 -49 5 0 -3 -16 -18 -36 -22 -28 -26 -42 -21 -69 6 -30 5 -33 -14
-28 -22 6 -28 -12 -7 -20 9 -4 9 -7 0 -14 -9 -6 -9 -20 -3 -48 12 -52 12 -55
-1 -52 -6 1 -18 -19 -26 -45 -9 -27 -20 -48 -25 -48 -5 0 -6 -9 -3 -21 5 -15
2 -22 -14 -26 -16 -4 -19 -11 -15 -28 4 -15 0 -27 -13 -36 -11 -8 -25 -28 -32
-46 -7 -18 -16 -32 -20 -31 -23 3 -32 -4 -27 -18 5 -12 2 -15 -9 -10 -10 4
-19 -3 -27 -18 -6 -14 -16 -22 -23 -20 -6 3 -24 -13 -40 -36 -15 -22 -30 -40
-34 -40 -3 0 -24 -17 -46 -36 -22 -20 -53 -47 -68 -60 -15 -14 -25 -29 -22
-34 4 -6 -3 -10 -14 -10 -11 0 -23 -5 -26 -10 -3 -5 -14 -10 -24 -10 -25 0
-47 -26 -29 -33 7 -3 -305 -5 -694 -4 -388 1 -710 6 -714 10 -5 4 -2 12 5 16
7 5 10 14 6 20 -5 9 -10 9 -20 1 -10 -9 -19 -6 -34 9 -12 12 -30 21 -41 21
-14 0 -20 6 -18 17 2 13 -3 17 -17 16 -10 -1 -28 8 -38 20 -10 12 -25 21 -33
19 -17 -4 -19 15 -1 21 6 2 -12 19 -41 37 -29 18 -51 35 -48 37 6 6 -46 58
-67 66 -18 7 -62 67 -49 67 6 0 8 9 5 20 -4 13 -14 20 -30 20 -22 0 -24 2 -12
16 10 12 10 17 0 23 -17 11 -62 102 -55 112 5 9 -30 66 -51 82 -5 5 0 6 11 2
21 -5 21 -4 9 32 -7 21 -20 39 -29 41 -17 4 -23 22 -7 22 19 0 23 41 6 66 -13
20 -14 28 -4 40 9 11 9 18 1 26 -7 7 -8 17 -2 28 7 13 4 20 -16 29 -21 9 -24
14 -14 26 9 11 6 20 -14 42 -14 15 -27 35 -28 43 0 8 -2 20 -2 26 -1 6 -9 19
-19 28 -9 10 -15 22 -11 27 11 18 -16 40 -37 28 -15 -8 -13 1 12 43 17 29 48
73 68 96 20 24 52 68 73 97 180 263 361 466 578 648 47 40 93 81 103 92 26 28
54 92 67 150 9 39 22 61 62 101 48 50 50 54 43 92 -6 36 0 54 51 159 53 109
57 123 57 185 -1 92 -7 103 -66 137 -95 53 -192 53 -253 -2 -19 -16 -38 -26
-43 -21 -4 5 -32 41 -63 79 -31 39 -71 84 -88 100 -17 17 -46 62 -64 100 -37
78 -117 189 -149 206 -11 6 -48 32 -81 56 -34 25 -124 76 -201 114 -182 88
-344 189 -337 208 3 8 1 12 -5 8 -6 -4 -7 9 -3 38 5 34 4 45 -7 45 -18 0 -17
7 8 47 18 29 19 37 8 44 -12 7 -10 23 10 96 13 48 25 104 28 123 2 19 8 36 13
38 6 2 7 15 4 28 -3 13 -1 31 6 39 6 8 9 19 6 24 -4 5 2 16 12 23 13 9 19 24
18 52 -1 23 3 40 11 43 7 3 13 10 13 17 0 6 13 38 29 70 16 33 27 65 24 72 -2
7 7 20 22 30 24 16 26 22 21 57 -5 28 -3 37 5 31 7 -4 18 1 26 12 14 18 15 18
27 1 11 -14 15 -15 19 -4 3 8 0 20 -6 26 -8 8 -7 11 6 11 18 0 57 34 57 50 0
6 6 10 13 10 17 0 67 52 67 69 0 9 8 11 28 6 22 -5 25 -4 15 6 -15 15 -17 49
-4 49 5 0 11 -6 14 -12 3 -9 10 -6 22 10 9 12 25 22 35 22 17 0 33 14 36 33 1
4 2 9 3 12 0 2 13 0 27 -5 24 -9 26 -8 21 10 -3 11 0 20 5 20 6 0 5 7 -3 16
-12 14 -11 16 6 13 11 -3 20 -11 20 -19 0 -17 23 -35 33 -25 4 3 1 9 -5 13
-18 11 2 35 23 28 14 -4 25 4 41 29 15 22 28 32 38 29 8 -4 17 1 21 10 3 9 13
16 20 16 8 0 17 7 21 16 4 11 13 14 30 9 14 -3 30 -2 36 3 19 15 57 21 57 10
0 -6 6 -5 15 2 8 7 15 23 15 36 0 29 16 32 23 3 5 -17 9 -19 26 -10 11 6 26 8
35 5 9 -3 19 3 26 16 6 12 17 19 23 17 7 -2 18 3 24 12 11 14 14 14 23 1 8
-12 11 -13 19 -1 6 9 11 10 15 2 7 -11 81 -5 101 9 6 3 29 6 53 6 23 -1 42 2
42 7 0 5 11 6 25 3 18 -5 27 -2 31 9 8 20 23 19 46 -2z m-2611 -73 c22 -21 29
-36 24 -50 -5 -17 -2 -20 20 -20 18 0 40 -13 62 -35 30 -30 35 -40 29 -68 -8
-45 -76 -107 -116 -107 -43 0 -90 47 -90 89 0 26 -4 31 -24 31 -28 0 -66 42
-66 72 0 49 66 118 113 118 10 0 32 -13 48 -30z m-184 -255 c79 -74 95 -85
117 -79 39 9 34 -24 -8 -65 -39 -38 -70 -37 -61 1 5 18 -6 35 -54 82 -50 50
-62 57 -75 47 -23 -19 -36 -4 -36 43 0 40 5 56 20 56 3 0 47 -38 97 -85z
m1023 -71 c0 -9 -7 -14 -17 -12 -25 5 -28 28 -4 28 12 0 21 -6 21 -16z m670
-34 c-19 -12 -30 -12 -30 -1 0 10 31 20 40 14 2 -2 -2 -8 -10 -13z m-766 -68
c-13 -22 -12 -78 2 -75 12 2 12 -26 -1 -47 -5 -9 -4 -15 4 -18 8 -3 6 -9 -7
-20 -10 -10 -24 -31 -31 -49 -14 -35 -41 -64 -41 -44 0 6 -5 11 -11 11 -5 0
-7 -5 -3 -12 4 -6 -1 -17 -11 -24 -33 -25 -83 -73 -88 -86 -4 -10 -8 -10 -17
2 -10 13 -11 13 -7 -2 3 -9 -1 -22 -9 -28 -10 -9 -14 -9 -14 -1 0 6 -4 11 -10
11 -5 0 -10 -6 -10 -13 0 -8 -10 -13 -21 -13 -12 1 -24 -5 -26 -11 -3 -7 2
-13 11 -13 10 0 16 -9 16 -25 0 -18 -4 -23 -15 -19 -8 4 -26 -1 -40 -10 -13
-9 -32 -16 -41 -16 -13 0 -16 -7 -11 -33 3 -23 -1 -39 -15 -57 -15 -19 -17
-25 -6 -29 23 -7 48 -34 48 -52 0 -9 4 -19 9 -21 5 -2 6 -36 2 -78 -4 -41 -4
-87 0 -102 6 -21 4 -28 -7 -28 -11 0 -13 -7 -8 -26 5 -19 4 -25 -5 -20 -15 10
-14 -17 1 -32 9 -9 7 -12 -10 -12 -24 0 -42 -28 -24 -39 20 -12 19 -61 -3 -61
-11 0 -13 -8 -8 -30 10 -52 -49 -30 -96 35 -24 33 -32 59 -41 129 -7 49 -9
106 -6 127 4 24 2 39 -4 39 -17 0 -11 22 11 46 22 23 19 44 -7 44 -18 0 -18
19 1 44 11 15 12 23 3 33 -9 11 -9 16 1 22 8 6 10 20 6 44 -11 56 48 142 98
142 10 0 22 6 26 13 9 16 41 5 41 -14 0 -8 -9 -14 -20 -14 -11 0 -20 -5 -20
-11 0 -5 5 -7 11 -3 7 4 25 7 41 6 23 -1 28 3 24 15 -4 9 1 17 14 20 23 6 26
19 8 26 -10 3 -10 9 -1 25 6 11 9 29 7 39 -4 14 3 27 20 41 14 11 26 27 26 36
0 10 7 16 17 14 10 -2 18 3 18 13 0 8 21 35 46 60 25 24 48 52 52 62 3 9 16
17 28 17 12 0 19 5 17 12 -3 7 6 21 19 31 13 10 23 25 23 33 0 8 7 14 15 14 8
0 15 5 15 12 0 9 3 9 12 0 9 -9 10 -17 2 -30z m46 -22 c0 -16 -4 -30 -10 -30
-5 0 -10 14 -10 30 0 17 5 30 10 30 6 0 10 -13 10 -30z m-1146 -42 c33 -46 8
-89 -56 -98 -42 -5 -43 -6 -40 -42 3 -42 -15 -60 -35 -33 -33 47 -3 115 51
115 38 0 62 20 44 38 -12 12 -4 42 11 42 5 0 17 -10 25 -22z m4476 -52 c0 -3
-4 -8 -10 -11 -5 -3 -10 -1 -10 4 0 6 5 11 10 11 6 0 10 -2 10 -4z m-4787
-262 c55 -39 55 -39 79 -17 26 23 45 4 28 -27 -10 -19 -10 -24 2 -31 36 -20
61 -47 54 -57 -9 -15 -43 -16 -51 -2 -3 5 -14 14 -24 20 -15 8 -26 -1 -65 -51
-26 -33 -52 -59 -58 -57 -14 5 -78 192 -78 228 0 14 5 31 12 38 13 13 30 6
101 -44z m1057 -4 c8 -5 11 -12 8 -16 -4 -3 -14 1 -23 10 -18 17 -9 21 15 6z
m4690 -206 c0 -8 -4 -12 -10 -9 -5 3 -10 10 -10 16 0 5 5 9 10 9 6 0 10 -7 10
-16z m-5879 -55 c85 -51 106 -59 121 -50 44 28 50 0 13 -59 -29 -45 -55 -53
-55 -15 0 19 -13 32 -69 65 -78 45 -80 46 -95 25 -18 -23 -35 -3 -42 48 -6 38
-4 47 9 47 8 0 61 -28 118 -61z m5799 27 c0 -3 -4 -8 -10 -11 -5 -3 -10 -1
-10 4 0 6 5 11 10 11 6 0 10 -2 10 -4z m-110 -35 c0 -6 -4 -13 -10 -16 -5 -3
-10 1 -10 9 0 9 5 16 10 16 6 0 10 -4 10 -9z m730 -5 c0 -3 -4 -8 -10 -11 -5
-3 -10 -1 -10 4 0 6 5 11 10 11 6 0 10 -2 10 -4z m-5579 -43 c6 -21 16 -44 22
-50 6 -9 6 -17 -1 -25 -6 -8 -7 -41 -3 -88 4 -41 6 -99 4 -128 -2 -45 -7 -57
-33 -78 -24 -21 -28 -29 -20 -44 15 -27 12 -33 -10 -27 -13 3 -20 0 -20 -9 0
-23 -8 -17 -82 51 -39 36 -74 65 -79 65 -4 0 -5 22 -2 50 4 31 1 55 -6 64 -6
7 -9 20 -5 29 3 9 -4 29 -16 45 -20 27 -20 60 0 47 4 -3 10 4 13 16 3 11 11
19 19 19 20 -3 58 11 58 21 0 5 6 9 14 9 7 0 24 13 37 29 26 30 42 39 76 40
16 1 24 -8 34 -36z m4955 -1 c-9 -9 -37 8 -31 18 5 8 11 7 21 -1 8 -6 12 -14
10 -17z m584 8 c0 -5 -4 -10 -10 -10 -5 0 -10 5 -10 10 0 6 5 10 10 10 6 0 10
-4 10 -10z m-6515 -77 c22 -32 51 -75 64 -98 14 -22 40 -60 58 -84 37 -49 40
-59 18 -68 -18 -6 -21 -3 -118 136 -99 142 -101 146 -94 164 10 25 28 12 72
-50z m5890 27 c3 -5 1 -10 -4 -10 -6 0 -11 5 -11 10 0 6 2 10 4 10 3 0 8 -4
11 -10z m24 -34 c8 -10 9 -16 1 -21 -12 -7 -42 19 -33 29 10 10 20 7 32 -8z
m-4313 -44 c-3 -9 -15 -60 -26 -112 -26 -122 -29 -130 -42 -130 -7 0 -9 30 -6
88 3 69 9 96 29 129 24 43 56 60 45 25z m4165 -25 c-1 -12 -15 -9 -19 4 -3 6
1 10 8 8 6 -3 11 -8 11 -12z m77 -34 c2 -12 9 -24 17 -27 9 -3 12 0 9 9 -3 7
3 16 15 20 12 3 21 11 21 16 0 14 17 10 24 -6 7 -18 -13 -77 -24 -70 -4 3 -6
-4 -3 -15 7 -28 -11 -25 -25 4 -14 32 -49 40 -56 13 -5 -19 -7 -20 -23 -5 -10
9 -25 18 -33 21 -8 2 -3 3 11 1 26 -3 26 -2 19 32 -8 34 -7 35 18 32 19 -2 28
-10 30 -25z m22 -84 c0 -5 -7 -9 -15 -9 -15 0 -20 12 -9 23 8 8 24 -1 24 -14z
m-5874 -25 c90 -52 117 -121 74 -192 -22 -36 -54 -52 -103 -52 -120 0 -212 90
-186 183 10 36 53 82 84 90 33 9 88 -3 131 -29z m5949 -3 c-6 -21 -25 -29 -25
-11 0 6 5 10 10 10 6 0 10 8 10 17 0 9 3 14 6 10 3 -3 3 -15 -1 -26z m-118
-16 c-3 -7 0 -18 6 -24 6 -6 8 -14 4 -18 -4 -4 -13 8 -19 25 -7 18 -16 32 -20
32 -4 0 -8 5 -8 10 0 7 7 7 21 0 11 -7 18 -17 16 -25z m203 9 c0 -8 -4 -12
-10 -9 -5 3 -10 10 -10 16 0 5 5 9 10 9 6 0 10 -7 10 -16z m-249 -20 c7 -8 9
-17 5 -21 -3 -4 -12 2 -20 12 -7 10 -18 15 -24 11 -7 -4 -12 -1 -12 7 0 18 34
12 51 -9z m106 -9 c8 -9 13 -18 10 -21 -6 -7 -47 18 -47 28 0 13 21 9 37 -7z
m-161 -52 c-4 -4 -11 -1 -16 7 -16 25 -11 35 7 17 9 -9 13 -20 9 -24z m89 16
c11 -16 1 -19 -13 -3 -7 8 -8 14 -3 14 5 0 13 -5 16 -11z m-45 -29 c0 -5 -4
-10 -9 -10 -6 0 -13 5 -16 10 -3 6 1 10 9 10 9 0 16 -4 16 -10z m-52 -12 c-3
-7 -13 -15 -23 -16 -15 -4 -16 -2 -4 12 17 19 32 21 27 4z m97 -16 c-8 -8 -25
10 -19 20 4 6 9 5 15 -3 4 -7 6 -15 4 -17z m-70 -22 c3 -5 1 -10 -4 -10 -6 0
-11 5 -11 10 0 6 2 10 4 10 3 0 8 -4 11 -10z m-51 -15 c11 -8 18 -17 15 -19
-2 -3 -15 4 -29 14 -14 11 -20 20 -15 19 6 0 19 -6 29 -14z m-146 -15 c7 -11
9 -20 4 -20 -10 0 -32 22 -32 32 0 15 15 8 28 -12z m52 10 c0 -6 12 -23 28
-37 l27 -26 -25 8 c-41 12 -73 65 -39 65 5 0 9 -5 9 -10z m-134 -55 c9 -8 26
-15 39 -15 15 0 31 -10 42 -26 15 -24 16 -27 1 -38 -12 -9 -13 -17 -7 -29 7
-11 7 -17 0 -17 -5 0 -17 -7 -25 -16 -15 -14 -16 -14 -16 5 0 12 -4 21 -10 21
-5 0 -10 7 -10 16 0 10 6 14 14 11 14 -6 32 21 21 31 -3 3 -5 0 -5 -6 0 -7 -6
-12 -13 -12 -16 0 -50 34 -42 42 3 3 -1 11 -10 18 -8 7 -15 16 -15 21 0 14 20
11 36 -6z m234 5 c0 -5 -5 -10 -11 -10 -5 0 -7 5 -4 10 3 6 8 10 11 10 2 0 4
-4 4 -10z m-132 -16 c6 -11 17 -15 31 -11 24 6 38 -10 22 -26 -17 -17 -13 -27
7 -21 13 4 13 3 -2 -7 -15 -9 -21 -9 -24 -1 -2 7 -10 12 -18 12 -8 0 -14 9
-14 20 0 11 -5 20 -11 20 -6 0 -17 7 -25 15 -14 13 -13 15 5 15 11 0 24 -7 29
-16z m-5742 -68 c105 -39 120 -43 131 -29 7 9 19 13 28 9 17 -6 16 -19 -11
-83 -15 -39 -44 -44 -44 -9 0 20 -11 27 -82 53 -79 29 -83 30 -90 12 -12 -32
-34 -21 -52 26 -14 37 -15 65 -2 65 1 0 56 -20 122 -44z m5642 -5 c3 -8 -1
-12 -9 -9 -7 2 -15 10 -17 17 -3 8 1 12 9 9 7 -2 15 -10 17 -17z m-11 -27 c23
-6 40 -34 20 -34 -15 0 -66 40 -52 40 6 0 20 -3 32 -6z m-30 -34 c6 0 15 -6
21 -12 16 -20 -27 -48 -56 -37 -13 5 -22 14 -20 20 4 13 24 11 21 -2 -2 -5 6
-9 17 -9 27 0 25 13 -5 36 -14 10 -25 23 -25 28 0 5 8 2 18 -7 10 -10 23 -17
29 -17z m-3534 -23 c-4 -29 -10 -37 -27 -38 -11 0 -15 -3 -9 -6 10 -3 9 -9 -3
-20 -8 -9 -14 -24 -11 -33 2 -10 -4 -23 -13 -30 -10 -7 -21 -28 -25 -47 -3
-18 -10 -33 -15 -33 -6 0 -10 -9 -10 -19 0 -20 -32 -39 -38 -22 -2 6 -13 11
-24 11 -17 0 -18 -3 -8 -15 8 -9 8 -15 2 -15 -17 0 -82 66 -82 83 0 9 -6 28
-12 43 -10 22 -10 28 0 32 6 2 12 12 12 23 0 10 6 19 13 19 8 0 7 3 -3 10 -12
7 -11 12 5 30 12 14 22 17 29 10 6 -6 16 -4 29 8 15 13 21 14 24 4 4 -10 8
-10 21 0 13 11 15 10 10 -7 -6 -26 20 -54 32 -35 5 7 6 19 3 27 -3 7 2 13 11
13 9 0 15 -4 14 -9 -4 -11 1 -12 29 -5 13 4 26 19 32 37 14 40 22 31 14 -16z
m3420 26 c15 -13 21 -15 24 -5 8 22 23 13 21 -13 -1 -14 -7 -25 -13 -25 -11 1
-65 46 -65 55 0 10 13 5 33 -12z m-3463 -8 c0 -8 -4 -15 -10 -15 -5 0 -10 7
-10 15 0 8 5 15 10 15 6 0 10 -7 10 -15z m3463 -44 c33 -17 36 -36 5 -27 -13
3 -26 6 -29 6 -4 0 -9 9 -12 21 -3 11 -2 19 1 17 4 -2 19 -10 35 -17z m-69
-33 c-3 -5 -12 -2 -20 6 -20 21 -17 28 5 14 11 -7 17 -16 15 -20z m62 -25 c-8
-8 -36 5 -36 17 0 7 6 7 21 0 11 -7 18 -14 15 -17z m-4178 -15 c-2 -5 -7 -9
-11 -9 -4 1 -14 1 -23 1 -13 0 -14 3 -4 14 12 16 43 10 38 -6z m4162 -18 c0
-5 -5 -10 -11 -10 -5 0 -7 5 -4 10 3 6 8 10 11 10 2 0 4 -4 4 -10z m-3714
-173 c1 -7 3 -16 4 -22 1 -5 1 -19 0 -30 -2 -17 -3 -17 -10 5 -10 32 -12 76
-3 66 4 -3 8 -12 9 -19z m551 -58 c58 -40 120 -59 197 -59 75 0 89 -9 216
-134 63 -62 114 -104 148 -119 28 -13 49 -27 45 -31 -3 -3 -29 -6 -57 -6 -73
0 -159 -23 -265 -70 -138 -60 -270 -158 -271 -200 0 -32 53 -97 111 -134 32
-21 59 -40 59 -41 0 -2 -22 -17 -49 -34 -56 -34 -128 -50 -199 -45 -67 6 -77
11 -62 29 10 13 10 19 -4 34 -14 15 -17 35 -15 100 2 44 7 81 12 81 5 0 6 8 2
18 -19 50 -23 108 -9 141 8 19 12 41 9 49 -3 8 0 21 7 29 10 12 9 17 -4 24
-23 13 -19 93 5 97 19 4 23 18 6 24 -14 5 -14 80 0 107 12 22 15 41 3 26 -4
-5 -20 -21 -36 -35 -21 -19 -15 -5 27 56 30 45 58 91 62 103 3 11 9 21 11 21
3 0 26 -14 51 -31z m693 -115 c0 -27 -20 -23 -35 6 l-15 30 25 -12 c14 -6 25
-17 25 -24z m390 -224 c0 -5 -4 -10 -9 -10 -6 0 -13 5 -16 10 -3 6 1 10 9 10
9 0 16 -4 16 -10z m2415 -30 c-3 -6 1 -13 9 -16 9 -3 13 -10 10 -15 -9 -15
-44 10 -38 26 4 8 10 15 16 15 5 0 6 -5 3 -10z m-20 -41 c11 -17 -1 -21 -15
-4 -8 9 -8 15 -2 15 6 0 14 -5 17 -11z m-269 -50 c23 -22 32 -39 28 -51 -3
-10 -1 -18 5 -18 6 0 11 -6 11 -12 0 -7 7 -26 15 -42 l15 -28 -38 7 c-42 8
-59 19 -67 45 -6 18 -98 95 -150 124 -30 17 -29 17 59 12 84 -4 90 -6 122 -37z
m-1314 -147 c9 -9 8 -16 -5 -29 -15 -15 -24 -15 -123 0 -68 10 -113 22 -123
32 -15 15 -6 16 112 13 81 -3 131 -8 139 -16z m-2742 -82 c0 -5 -4 -10 -10
-10 -5 0 -10 5 -10 10 0 6 5 10 10 10 6 0 10 -4 10 -10z m4394 -42 c33 -55 15
-63 -30 -13 -21 24 -39 35 -49 32 -8 -4 -15 -2 -15 3 0 9 22 17 52 19 10 1 27
-16 42 -41z m-4414 2 c0 -5 -5 -10 -11 -10 -5 0 -7 5 -4 10 3 6 8 10 11 10 2
0 4 -4 4 -10z m3855 -70 c3 -5 1 -10 -4 -10 -6 0 -11 5 -11 10 0 6 2 10 4 10
3 0 8 -4 11 -10z m388 -29 c3 -12 -1 -22 -11 -26 -8 -3 -15 -4 -16 -3 -1 2 -7
13 -14 26 -7 13 -10 27 -7 32 9 15 42 -6 48 -29z m-243 19 c0 -5 -2 -10 -4
-10 -3 0 -8 5 -11 10 -3 6 -1 10 4 10 6 0 11 -4 11 -10z m76 -11 c13 -15 14
-20 4 -15 -8 3 -23 9 -32 12 -10 4 -18 10 -18 15 0 17 27 9 46 -12z m244 -7
c0 -15 -2 -15 -10 -2 -13 20 -13 33 0 25 6 -3 10 -14 10 -23z m-150 -2 c0 -5
-4 -10 -10 -10 -5 0 -10 5 -10 10 0 6 5 10 10 10 6 0 10 -4 10 -10z m-2980
-230 c0 -5 -4 -10 -10 -10 -5 0 -10 5 -10 10 0 6 5 10 10 10 6 0 10 -4 10 -10z
m-60 -50 c0 -5 11 -20 25 -34 26 -26 34 -66 13 -66 -8 -1 -6 -6 5 -14 18 -14
24 -66 7 -66 -14 0 -41 45 -42 72 -1 12 -8 31 -16 40 -12 14 -12 21 -3 32 8
10 9 16 1 21 -13 8 -13 25 0 25 6 0 10 -4 10 -10z m88 -31 c-7 -5 -9 -9 -3 -9
5 0 4 -5 -2 -11 -9 -9 -16 -8 -27 4 -22 22 -20 26 15 25 20 -1 26 -4 17 -9z
m-158 -158 c0 -17 -4 -31 -10 -31 -5 0 -10 7 -10 15 0 8 -4 15 -10 15 -5 0
-10 8 -10 17 0 9 -9 27 -21 39 -35 37 -12 44 26 8 25 -23 35 -41 35 -63z
m3354 -414 c-7 -32 -15 -61 -18 -65 -15 -14 -17 11 -6 65 7 32 14 67 15 78 4
31 6 32 14 5 4 -13 1 -51 -5 -83z m-4024 74 c0 -10 -8 -21 -17 -25 -10 -3 -24
-9 -30 -12 -8 -3 -13 1 -13 10 0 9 6 13 14 10 8 -3 16 3 19 15 6 26 27 28 27
2z m37 -23 c-3 -8 -6 -5 -6 6 -1 11 2 17 5 13 3 -3 4 -12 1 -19z m-25 -44 c2
-19 0 -37 -4 -40 -4 -3 -8 13 -8 35 0 51 6 53 12 5z m175 0 c-9 -9 -28 6 -21
18 4 6 10 6 17 -1 6 -6 8 -13 4 -17z m-287 -25 c0 -16 -15 -9 -34 17 l-19 26
27 -17 c14 -10 26 -21 26 -26z m52 9 c-6 -6 -15 -8 -19 -4 -4 4 -1 11 7 16 19
12 27 3 12 -12z m138 1 c0 -5 -4 -9 -10 -9 -5 0 -10 7 -10 16 0 8 5 12 10 9 6
-3 10 -10 10 -16z m-210 -49 c0 -18 -19 -11 -30 11 -11 19 -10 20 9 9 12 -6
21 -15 21 -20z m-60 -45 c0 -8 -4 -15 -10 -15 -5 0 -10 7 -10 15 0 8 5 15 10
15 6 0 10 -7 10 -15z m4654 -160 c4 -33 9 -68 12 -77 3 -10 2 -18 -3 -18 -13
0 -33 59 -26 76 3 9 0 26 -7 39 -7 13 -10 31 -6 41 11 29 24 3 30 -61z m-1054
-15 c0 -5 -2 -10 -4 -10 -3 0 -8 5 -11 10 -3 6 -1 10 4 10 6 0 11 -4 11 -10z
m1067 -162 c-3 -8 -6 -5 -6 6 -1 11 2 17 5 13 3 -3 4 -12 1 -19z m-4180 -350
c98 -201 183 -334 307 -484 l75 -89 -126 -3 c-86 -2 -130 1 -140 9 -32 27
-154 201 -220 314 -100 171 -127 226 -117 243 11 16 142 89 165 91 10 1 29
-28 56 -81z m4613 -415 c0 -5 -27 -43 -61 -85 l-60 -78 -95 0 -95 0 20 28 c58
79 86 99 152 111 35 6 78 15 94 20 39 12 45 12 45 4z m-3955 -348 c66 -12 85
-20 108 -45 32 -36 35 -72 7 -117 -25 -42 -55 -49 -160 -35 -107 15 -263 14
-350 -2 l-65 -11 -3 -124 c-1 -69 -1 -130 1 -136 3 -7 49 -7 158 2 226 17 315
16 344 -3 32 -21 50 -79 36 -116 -22 -58 -19 -57 -438 -84 l-112 -7 -7 -65
c-8 -79 3 -221 18 -240 10 -12 54 -13 249 -11 221 4 238 3 258 -15 49 -44 31
-132 -31 -157 -22 -8 -103 -14 -233 -17 -362 -7 -428 28 -456 244 -9 74 -8
151 5 398 10 168 14 310 11 315 -3 5 -6 46 -6 91 -1 73 2 85 23 107 21 23 29
25 83 20 34 -2 92 1 130 8 100 18 333 18 430 0z m890 1 c110 -20 135 -40 135
-111 0 -27 -8 -44 -30 -67 -30 -29 -33 -30 -93 -24 -161 16 -298 18 -380 6
l-87 -12 0 -136 0 -135 98 7 c53 3 161 9 239 13 l141 6 31 -31 c40 -40 43
-101 8 -136 -27 -27 -44 -30 -339 -48 l-198 -12 0 -141 c0 -103 4 -146 13
-160 13 -17 29 -18 247 -13 l234 6 28 -28 c36 -36 38 -87 6 -125 -34 -38 -109
-47 -337 -43 -172 3 -203 7 -250 26 -75 30 -98 55 -123 136 -20 67 -21 80 -12
320 4 138 8 343 9 454 l0 204 25 20 c21 17 35 20 85 15 34 -2 90 1 125 8 85
17 336 17 425 1z m1250 -656 l0 -305 -23 -3 c-51 -7 -52 -1 -52 303 0 156 3
291 6 300 5 11 16 15 38 13 l31 -3 0 -305z m-3431 254 c21 -8 119 -156 181
-273 27 -52 55 -96 60 -98 6 -2 28 38 49 89 62 151 124 275 141 281 8 4 26 2
40 -3 35 -13 32 -48 -10 -134 -19 -39 -58 -127 -86 -196 -52 -129 -184 -389
-203 -402 -21 -15 -46 -8 -62 17 -16 24 -15 28 36 129 l53 105 -36 48 c-19 26
-50 80 -70 118 -19 39 -62 112 -96 163 -34 51 -61 101 -61 112 0 10 10 26 22
34 26 18 22 18 42 10z m2737 -13 c283 -6 299 -9 299 -56 0 -43 -21 -49 -153
-42 -67 4 -127 3 -133 -1 -8 -5 -7 -60 2 -197 24 -352 20 -405 -33 -405 -45 0
-51 20 -52 172 -1 79 -6 181 -11 228 -5 47 -10 110 -10 141 0 68 -2 69 -108
70 -110 1 -126 8 -130 49 -4 38 21 66 48 54 8 -4 135 -10 281 -13z m689 -653
c17 -28 18 -35 6 -53 -21 -32 -51 -30 -76 5 -19 26 -21 36 -11 56 16 36 56 32
81 -8z m-3086 -359 c40 -32 36 -83 -10 -123 -73 -63 -104 -94 -104 -105 0 -7
24 -11 64 -11 44 0 67 -5 76 -15 18 -22 -2 -26 -96 -23 -74 3 -79 4 -82 26 -5
36 17 80 52 104 87 59 107 99 61 120 -22 10 -30 8 -55 -10 -59 -44 -85 -13
-27 32 39 31 85 33 121 5z m245 5 c64 -45 70 -191 11 -254 -23 -25 -36 -30
-72 -30 -70 0 -108 51 -108 145 0 65 26 125 62 142 34 17 80 15 107 -3z m182
-79 c-1 -49 -4 -92 -7 -96 -10 -17 9 -68 28 -72 11 -3 18 -12 16 -19 -3 -8
-26 -14 -67 -16 -56 -3 -62 -1 -59 15 2 10 13 19 24 21 19 3 21 10 22 92 2 90
2 90 -23 90 -34 0 -31 20 7 52 54 45 61 36 59 -67z m240 85 c26 -14 49 -62 49
-103 0 -46 -25 -116 -53 -145 -25 -27 -104 -65 -118 -56 -20 12 -6 30 40 50
27 12 54 31 60 41 9 18 7 20 -34 19 -32 -1 -50 5 -68 22 -67 63 -21 182 71
182 18 0 42 -5 53 -10z m419 -5 c16 -20 4 -24 -84 -27 l-69 -3 -1 -45 -1 -45
45 4 c88 8 95 7 95 -14 0 -15 -7 -20 -30 -22 -16 -1 -49 -5 -72 -8 -42 -6 -43
-7 -43 -45 l0 -39 73 -3 c56 -2 72 -6 72 -18 0 -12 -17 -16 -82 -18 -74 -3
-83 -1 -93 18 -10 18 -13 255 -4 271 2 4 44 7 92 8 69 1 92 -2 102 -14z m246
4 c25 -21 3 -29 -77 -29 l-80 0 3 -47 c3 -53 -1 -51 86 -39 43 5 53 4 58 -9
10 -25 10 -25 -98 -40 -48 -6 -48 -6 -48 -45 l0 -39 73 -3 c56 -2 72 -6 72
-18 0 -12 -16 -15 -85 -15 -83 0 -85 1 -98 28 -10 20 -11 56 -6 146 l7 119 90
1 c54 1 95 -3 103 -10z m934 -79 c0 -49 4 -90 8 -90 4 0 26 18 47 40 38 39 75
53 75 28 0 -7 -14 -26 -31 -44 l-31 -32 36 -52 c30 -43 34 -55 24 -68 -11 -12
-16 -10 -38 19 -52 68 -55 70 -73 64 -11 -5 -17 -18 -17 -39 0 -42 -15 -65
-31 -49 -12 12 -14 286 -3 305 3 4 12 8 20 8 11 0 14 -18 14 -90z m-730 -67
c6 -53 16 -76 24 -52 25 79 40 109 57 109 17 0 20 -6 34 -94 8 -47 16 -40 35
32 10 38 21 58 33 60 23 5 22 -14 -4 -102 -24 -80 -34 -96 -59 -96 -13 0 -22
15 -32 58 l-15 57 -26 -57 c-15 -33 -32 -58 -41 -58 -17 0 -33 43 -46 125 -10
63 -7 78 18 73 12 -2 18 -17 22 -55z m394 38 c28 -31 12 -56 -54 -85 -62 -28
-72 -39 -44 -50 26 -10 57 -7 88 9 31 17 51 8 41 -17 -13 -33 -111 -51 -154
-28 -47 25 -51 121 -6 166 31 31 103 34 129 5z m220 0 c28 -31 12 -56 -54 -85
-62 -28 -72 -39 -44 -50 26 -10 57 -7 88 9 31 17 51 8 41 -17 -13 -33 -111
-51 -154 -28 -47 25 -51 121 -6 166 31 31 103 34 129 5z"/>
<path d="M4192 8846 c-24 -7 -40 -15 -37 -18 4 -3 21 -2 38 3 18 5 46 9 64 9
17 0 35 5 38 10 8 13 -47 11 -103 -4z"/>
<path d="M4225 8803 c-11 -2 -30 -6 -42 -9 -13 -2 -23 -9 -23 -15 0 -11 69 -7
128 8 58 14 -1 30 -63 16z"/>
<path d="M4120 8660 c0 -18 3 -19 20 -10 11 6 20 15 20 20 0 6 -9 10 -20 10
-13 0 -20 -7 -20 -20z"/>
<path d="M3741 8726 c-42 -11 -69 -36 -39 -36 25 0 108 32 108 41 0 11 -13 10
-69 -5z"/>
<path d="M3613 8689 c-22 -6 -33 -16 -33 -28 0 -18 2 -18 35 -3 19 9 35 22 35
29 0 7 -1 13 -2 12 -2 0 -18 -5 -35 -10z"/>
<path d="M3618 8633 c-31 -5 -34 -11 -15 -37 10 -14 17 -15 41 -7 17 7 26 17
24 28 -3 19 -12 21 -50 16z"/>
<path d="M3332 8548 c-24 -11 -42 -22 -39 -25 7 -6 107 30 107 39 0 12 -21 8
-68 -14z"/>
<path d="M3428 8473 c-10 -2 -18 -13 -18 -24 0 -22 0 -22 34 -9 17 6 24 14 20
25 -6 16 -7 16 -36 8z"/>
<path d="M3324 8426 c-18 -14 -18 -15 -1 -21 23 -9 47 1 47 20 0 19 -20 19
-46 1z"/>
<path d="M3453 8407 c-13 -5 -23 -14 -23 -19 0 -17 32 -20 48 -4 22 21 4 37
-25 23z"/>
<path d="M3355 8366 c-15 -11 -17 -18 -9 -26 14 -14 57 5 51 23 -5 17 -21 18
-42 3z"/>
<path d="M7215 6899 c-7 -10 10 -28 28 -29 12 0 8 17 -7 29 -11 9 -16 9 -21 0z"/>
<path d="M7225 6580 c-3 -5 -1 -10 4 -10 6 0 11 5 11 10 0 6 -2 10 -4 10 -3 0
-8 -4 -11 -10z"/>
<path d="M7351 6580 c1 -28 14 -49 26 -42 8 5 6 14 -7 32 -13 16 -19 20 -19
10z"/>
<path d="M7225 6550 c3 -5 8 -10 11 -10 2 0 4 5 4 10 0 6 -5 10 -11 10 -5 0
-7 -4 -4 -10z"/>
<path d="M7160 6482 c0 -6 8 -19 19 -29 10 -10 21 -25 24 -33 4 -11 6 -9 6 6
1 11 -10 31 -24 44 -14 13 -25 18 -25 12z"/>
<path d="M1555 6014 c-86 -189 -164 -534 -195 -868 -14 -144 -13 -496 1 -639
21 -219 102 -578 149 -667 10 -18 14 -20 21 -9 9 15 41 19 50 6 4 -5 22 5 42
22 24 22 37 28 41 19 3 -7 2 0 -1 16 -5 26 -4 28 15 24 14 -4 23 0 27 11 6 15
7 14 16 -1 12 -22 44 -24 36 -4 -5 12 -2 13 16 5 12 -5 30 -12 40 -15 9 -4 17
-10 17 -14 0 -10 61 -42 68 -36 2 3 -12 15 -32 28 -41 27 -43 33 -16 50 11 7
20 18 20 25 0 16 15 17 41 3 40 -22 12 22 -36 55 -19 12 -19 14 -3 32 11 12
15 27 11 42 -4 18 -3 22 6 17 14 -9 51 20 51 41 0 7 -8 13 -17 13 -15 0 -16 2
-3 10 12 8 12 11 -3 28 -9 10 -17 23 -17 29 0 6 -9 9 -20 6 -21 -6 -29 20 -10
32 6 4 9 14 8 22 -2 9 3 18 11 21 10 3 11 -2 6 -19 -7 -22 -7 -22 9 -6 23 23
29 21 20 -5 -6 -20 -5 -21 9 -9 14 11 18 11 23 -4 7 -17 8 -17 20 0 13 17 15
17 32 2 26 -23 35 -21 21 4 -9 17 -8 23 2 30 10 6 4 9 -17 9 -30 0 -31 2 -30
38 1 20 -2 42 -6 48 -14 19 -22 104 -10 104 6 0 14 14 17 32 4 18 12 40 18 50
9 13 7 21 -6 36 -22 24 -22 42 1 43 10 0 12 3 5 6 -15 6 -17 45 -3 59 5 5 11
19 13 31 1 11 8 27 14 35 5 7 13 25 17 41 5 20 3 27 -9 27 -8 0 -15 4 -15 9 0
5 8 7 18 5 25 -7 44 37 23 57 -14 12 -14 14 2 17 10 2 17 13 17 27 0 13 4 26
9 29 4 3 6 16 4 29 -5 26 21 87 37 87 6 0 10 7 10 15 0 8 7 15 15 15 18 0 19
12 3 28 -9 9 -5 17 16 37 15 14 29 25 32 25 18 0 39 39 40 72 0 21 -2 38 -4
38 -2 0 -13 -11 -24 -25 -11 -14 -26 -25 -34 -25 -21 0 -17 44 6 65 11 10 20
28 20 39 1 27 23 56 43 56 8 0 18 7 21 16 9 24 7 36 -5 28 -8 -4 -8 0 0 15 7
11 8 22 4 22 -4 1 -15 2 -23 3 -8 0 -19 11 -25 24 -5 12 -16 20 -23 17 -24 -9
-26 27 -2 47 18 14 20 21 10 32 -6 8 -18 12 -26 9 -8 -3 -14 -1 -14 4 0 5 -13
17 -30 26 -31 19 -40 37 -17 37 13 0 42 48 34 56 -2 3 -20 -2 -39 -11 -32 -13
-37 -13 -48 0 -7 8 -21 15 -31 15 -11 0 -19 5 -19 10 0 6 4 10 8 10 10 0 35
50 28 57 -2 2 -21 -4 -43 -14 -21 -11 -55 -21 -76 -22 -32 -2 -43 3 -68 28
-16 17 -29 35 -29 41 0 5 -13 10 -29 10 -28 0 -61 22 -61 39 0 5 -27 21 -60
37 -33 15 -60 31 -60 35 0 3 -9 16 -20 29 l-19 22 -36 -78z m496 -1107 c-13
-13 -26 -3 -16 12 3 6 11 8 17 5 6 -4 6 -10 -1 -17z m-91 -577 c0 -5 -2 -10
-4 -10 -3 0 -8 5 -11 10 -3 6 -1 10 4 10 6 0 11 -4 11 -10z m-77 -120 c7 0 1
-6 -13 -14 -14 -7 -29 -9 -34 -5 -13 11 4 31 21 25 8 -3 20 -6 26 -6z m-43
-75 c0 -8 -7 -15 -16 -15 -14 0 -14 3 -4 15 7 8 14 15 16 15 2 0 4 -7 4 -15z
m-140 -154 c0 -3 -5 -13 -11 -21 -8 -12 -9 -10 -4 8 7 24 -4 29 -23 10 -18
-18 -24 -4 -12 27 l10 28 20 -23 c11 -13 20 -26 20 -29z m110 -20 c0 -5 -7
-12 -16 -15 -21 -8 -24 -8 -24 5 0 5 5 7 10 4 6 -3 10 -1 10 4 0 6 5 11 10 11
6 0 10 -4 10 -9z m-160 -11 c0 -5 -2 -10 -4 -10 -3 0 -8 5 -11 10 -3 6 -1 10
4 10 6 0 11 -4 11 -10z m-10 -39 c0 -6 -4 -13 -10 -16 -5 -3 -10 1 -10 9 0 9
5 16 10 16 6 0 10 -4 10 -9z"/>
<path d="M2398 5125 c-6 -14 -15 -25 -20 -25 -4 0 -8 -8 -7 -17 0 -16 1 -16
12 1 7 10 20 26 30 35 19 17 22 31 7 31 -6 0 -16 -11 -22 -25z"/>
<path d="M2350 4970 c0 -5 5 -10 10 -10 6 0 10 5 10 10 0 6 -4 10 -10 10 -5 0
-10 -4 -10 -10z"/>
<path d="M2010 4379 c0 -10 33 -29 51 -29 9 0 9 3 0 14 -14 17 -51 28 -51 15z"/>
<path d="M1692 3878 c-16 -16 -15 -28 1 -28 7 0 13 9 14 20 2 23 1 24 -15 8z"/>
<path d="M6713 3574 c-3 -8 -1 -20 6 -27 8 -8 11 -4 11 16 0 30 -7 35 -17 11z"/>
<path d="M6718 3512 c-3 -9 -2 -38 2 -62 7 -45 8 -44 9 18 1 62 -3 77 -11 44z"/>
<path d="M6697 3040 c-11 -41 -17 -90 -15 -128 3 -58 4 -62 21 -50 16 12 17
27 15 128 l-3 115 -18 -65z"/>
<path d="M5146 3840 c-16 -5 -33 -7 -38 -4 -4 3 -8 -2 -8 -10 0 -9 10 -18 23
-21 29 -8 80 11 75 27 -6 16 -18 18 -52 8z"/>
<path d="M5063 3757 c22 -18 22 -23 -3 -30 -14 -4 -20 0 -20 12 0 11 -8 16
-25 16 -14 -1 -28 -5 -32 -8 -3 -4 -23 -7 -43 -7 -43 0 -54 -8 -39 -27 9 -10
5 -13 -20 -13 -38 0 -39 -6 -5 -37 20 -18 24 -27 15 -36 -16 -16 -14 -37 3
-37 8 0 22 7 30 16 13 13 16 13 16 1 0 -13 22 -16 73 -8 4 1 7 8 7 16 0 8 7
15 15 15 8 0 15 -6 15 -13 0 -8 8 -21 18 -31 17 -15 22 -15 57 -1 20 9 40 14
43 11 3 -3 0 -6 -6 -6 -7 0 -12 -6 -12 -14 0 -9 10 -13 33 -10 17 1 38 3 45 3
8 1 12 7 9 14 -2 6 11 22 30 35 38 26 41 42 12 60 -15 9 -24 10 -33 2 -10 -7
-21 -6 -42 5 -16 8 -23 15 -15 15 9 0 11 7 8 22 -4 12 -1 28 5 35 16 20 -6 16
-35 -7 -26 -21 -57 -27 -57 -11 0 5 -8 11 -17 15 -10 3 -25 9 -33 12 -10 4
-10 1 3 -9z m-83 -137 c0 -5 -2 -10 -4 -10 -3 0 -8 5 -11 10 -3 6 -1 10 4 10
6 0 11 -4 11 -10z m-70 -10 c0 -5 -4 -10 -10 -10 -5 0 -10 5 -10 10 0 6 5 10
10 10 6 0 10 -4 10 -10z"/>
<path d="M4740 3750 c0 -5 6 -10 14 -10 8 0 18 5 21 10 3 6 -3 10 -14 10 -12
0 -21 -4 -21 -10z"/>
<path d="M4794 3732 c6 -19 -8 -41 -42 -64 -20 -13 -21 -17 -7 -28 12 -10 15
-10 15 4 0 24 47 21 60 -4 6 -11 15 -18 21 -14 13 8 1 46 -19 62 -9 7 -11 12
-4 12 21 0 13 37 -8 43 -16 4 -20 1 -16 -11z"/>
<path d="M5220 3717 c0 -8 7 -18 16 -21 11 -4 14 -1 12 11 -4 21 -28 30 -28
10z"/>
<path d="M5300 3685 c0 -8 4 -15 10 -15 16 0 -1 -33 -37 -69 -40 -42 -41 -51
-5 -51 21 0 24 2 12 10 -13 8 -11 13 9 32 l23 23 -6 -29 c-6 -26 -5 -28 9 -16
8 7 19 9 23 5 4 -4 1 -10 -5 -12 -13 -4 -19 -33 -8 -33 3 0 16 10 28 21 15 15
18 23 10 26 -7 3 -13 11 -13 18 0 7 6 15 13 18 9 3 9 9 -2 29 -7 15 -10 32 -6
39 6 9 3 11 -8 6 -10 -3 -17 -2 -17 3 0 6 -7 10 -15 10 -8 0 -15 -7 -15 -15z"/>
<path d="M4607 3668 c-15 -5 -24 -14 -21 -20 4 -7 9 -6 14 2 9 15 30 4 30 -15
0 -9 -6 -12 -15 -9 -8 4 -15 2 -15 -4 0 -16 25 -21 42 -8 11 8 14 21 11 39 -6
30 -6 30 -46 15z"/>
<path d="M4785 3620 c3 -5 8 -10 11 -10 2 0 4 5 4 10 0 6 -5 10 -11 10 -5 0
-7 -4 -4 -10z"/>
<path d="M5380 3555 c0 -24 5 -35 14 -35 22 0 27 16 15 44 -17 36 -29 32 -29
-9z"/>
<path d="M5470 3564 c0 -17 22 -14 28 4 2 7 -3 12 -12 12 -9 0 -16 -7 -16 -16z"/>
<path d="M5210 3544 c0 -8 5 -12 10 -9 6 3 10 10 10 16 0 5 -4 9 -10 9 -5 0
-10 -7 -10 -16z"/>
<path d="M5985 3040 c-3 -5 -1 -10 4 -10 6 0 11 5 11 10 0 6 -2 10 -4 10 -3 0
-8 -4 -11 -10z"/>
<path d="M2003 7745 c-26 -18 -32 -70 -9 -78 40 -16 91 37 69 71 -14 23 -34
25 -60 7z"/>
<path d="M2094 7653 c-6 -5 -17 -19 -24 -32 -10 -19 -10 -28 1 -47 17 -32 58
-32 89 1 20 21 22 30 14 53 -7 20 -17 28 -39 30 -17 1 -35 -1 -41 -5z"/>
<path d="M1362 6942 c2 -4 12 -31 22 -60 11 -29 23 -52 26 -52 6 0 40 54 40
63 0 5 -77 57 -86 57 -3 0 -4 -4 -2 -8z"/>
<path d="M1905 6560 c3 -5 8 -10 11 -10 2 0 4 5 4 10 0 6 -5 10 -11 10 -5 0
-7 -4 -4 -10z"/>
<path d="M1890 6531 c0 -6 5 -13 10 -16 6 -3 10 1 10 9 0 9 -4 16 -10 16 -5 0
-10 -4 -10 -9z"/>
<path d="M1930 6440 c0 -5 5 -10 10 -10 6 0 10 5 10 10 0 6 -4 10 -10 10 -5 0
-10 -4 -10 -10z"/>
<path d="M2020 6261 c0 -6 5 -13 10 -16 6 -3 10 1 10 9 0 9 -4 16 -10 16 -5 0
-10 -4 -10 -9z"/>
<path d="M991 6324 c-28 -35 -26 -66 5 -103 29 -34 105 -62 148 -54 24 5 56
45 56 72 0 19 -53 72 -91 91 -54 28 -93 26 -118 -6z"/>
<path d="M2961 5906 c-7 -8 -8 -17 -3 -20 6 -3 13 1 16 10 9 23 2 28 -13 10z"/>
<path d="M2960 888 c-27 -29 -34 -58 -27 -114 12 -112 115 -112 131 1 16 106
-47 174 -104 113z"/>
<path d="M3386 891 c-26 -29 -18 -82 16 -99 59 -28 110 34 71 86 -25 34 -63
39 -87 13z"/>
<path d="M4635 790 c-10 -11 -15 -23 -12 -27 9 -9 80 20 85 35 6 20 -53 14
-73 -8z"/>
<path d="M4855 788 c-19 -29 -7 -33 39 -14 44 18 47 36 7 36 -20 0 -35 -8 -46
-22z"/>
</g>
</svg>
